PathFileType	4	(x/y/z)	S04_PSF_T13.trc
DataRate	CameraRate	NumFrames	NumMarkers	Units	OrigDataRate	OrigDataStartFrame	OrigNumFrames
240	240	10	51	mm	240	163	432
Frame#	Time	Sternum			R.Acromium			L.Acromium			Top.Head			R.ASIS			L.ASIS			R.PSIS			L.PSIS			R.Great.Tro			L.Great.Tro			R.Iliac.Crest			L.Iliac.Crest			V.Sacral			R.Thigh.Upper.Post			R.Thigh.Lower.Ant			R.Thigh.Lower.Post			R.Thigh.Upper.Ant			R.Knee.Lat			R.Knee.Med			R.Shank.Upper.Post			R.Shank.Lower.Ant			R.Shank.Lower.Post			R.Shank.Upper.Ant			R.Ankle.Lat			R.Ankle.Med			R.Heel.Upper			R.Heel.Med			R.Heel.Lat			R.Toe.Lat			R.Toe.Med			R.Toe.Tip			L.Thigh.Upper.Post			L.Thigh.Lower.Ant			L.Thigh.Lower.Post			L.Thigh.Upper.Ant			L.Knee.Lat			L.Knee.Med			L.Shank.Upper.Post			L.Shank.Lower.Ant			L.Shank.Lower.Post			L.Shank.Upper.Ant			L.Ankle.Lat			L.Ankle.Med			L.Heel.Upper			L.Heel.Med			L.Heel.Lat			L.Toe.Lat			L.Toe.Med			L.Toe.Tip			Cervical.Spine			Back			
		X1	Y1	Z1	X2	Y2	Z2	X3	Y3	Z3	X4	Y4	Z4	X5	Y5	Z5	X6	Y6	Z6	X7	Y7	Z7	X8	Y8	Z8	X9	Y9	Z9	X10	Y10	Z10	X11	Y11	Z11	X12	Y12	Z12	X13	Y13	Z13	X14	Y14	Z14	X15	Y15	Z15	X16	Y16	Z16	X17	Y17	Z17	X18	Y18	Z18	X19	Y19	Z19	X20	Y20	Z20	X21	Y21	Z21	X22	Y22	Z22	X23	Y23	Z23	X24	Y24	Z24	X25	Y25	Z25	X26	Y26	Z26	X27	Y27	Z27	X28	Y28	Z28	X29	Y29	Z29	X30	Y30	Z30	X31	Y31	Z31	X32	Y32	Z32	X33	Y33	Z33	X34	Y34	Z34	X35	Y35	Z35	X36	Y36	Z36	X37	Y37	Z37	X38	Y38	Z38	X39	Y39	Z39	X40	Y40	Z40	X41	Y41	Z41	X42	Y42	Z42	X43	Y43	Z43	X44	Y44	Z44	X45	Y45	Z45	X46	Y46	Z46	X47	Y47	Z47	X48	Y48	Z48	X49	Y49	Z49	X50	Y50	Z50	X51	Y51	Z51	

163	0.675	-672.66	1254.4	263.8	-808.83	1475.3	445.66	-815.77	1465.8	95.377	-767.61	1806.9	257.27	-679.85	974.45	382.6	-710.66	980.62	135.39	-904.56	1004	313.5	-904.23	1008	232.77	-750.94	896.49	458.46	-843.45	900.84	86.589	-767.86	1058.6	439.05	-811.91	1065.4	104.93	-925.86	964.56	275.19	-674.76	648.15	435.18	-581.34	597.08	388.36	-646.43	563.81	415.16	-606.62	701.99	415.83	-600.21	509.76	398.75	-637.69	497.81	277.34	-624.79	272.82	397.35	-548.45	211.87	346.8	-612.01	204.91	380.99	-563.02	279.46	372.47	-581.2	96.182	354.94	-565.93	117.79	266.22	-639.63	68.207	296.08	-627.47	40.044	264.5	-632.82	34.347	328.53	-463.67	46.554	375.09	-430.22	63.276	260.41	-370.44	91.053	308.22	-892.25	674.09	97.368	-826.94	567.47	81.571	-895.05	584.42	102.16	-828.73	657.99	74.851	-881.54	485.68	94.995	-855.64	459.77	216.2	-1060.1	405.61	115.77	-1066.6	295.24	107.64	-1106	343.3	123.86	-1019.4	356.93	98.949	-1185.4	192.24	136.8	-1163.5	199.2	225.72	-1251.9	226.41	187.24	-1261.8	209.42	225.11	-1272.4	202.95	163.93	-1161.5	63.581	126.17	-1120.6	58.334	238.87	-1079.3	38.343	190.09	-861.15	1524.7	275.17	-933.86	1263.6	253.67
164	0.67917	-666.72	1255.1	264.3	-803.1	1475.8	446.27	-809.95	1466.5	95.964	-762.22	1807.5	258.08	-674.05	975.17	383.32	-704.58	980.99	136.14	-898.74	1004.6	313.61	-898.28	1008.4	232.88	-745.36	897.33	459	-836.88	900.69	87.037	-762.15	1059.2	439.51	-805.58	1065.8	105.34	-920	965.09	275.4	-669.52	648.71	435.74	-576.26	597.38	388.93	-641.43	564.29	415.72	-601.23	702.35	416.42	-595.48	509.9	399.22	-633.07	498.29	277.82	-621.92	273.08	397.88	-546.34	211.5	346.99	-609.82	205.07	381.41	-560.21	279.17	372.68	-580.31	96.094	355.13	-564.69	117.67	266.45	-639.18	68.557	296.28	-627.23	40.381	264.62	-632.57	34.567	328.65	-463.15	45.446	375.11	-429.67	61.96	260.35	-369.52	89.019	308.13	-883.66	673.09	97.175	-817.39	567.13	80.796	-885.57	583.37	101.7	-820.06	657.64	74.395	-870.93	485.11	94.205	-844.56	458.78	215.46	-1050	407.57	115.25	-1058.1	297.31	106.81	-1096.7	345.92	123.25	-1010	358.33	98.217	-1178.5	196.24	135.75	-1156	202.68	224.63	-1243.6	232.68	186.17	-1254	216.32	224.28	-1264.9	209.79	163.04	-1158.5	66.304	125.74	-1117.4	60.557	238.19	-1077.1	38.246	189.4	-855.49	1525.1	275.83	-927.91	1264	254.11
165	0.68333	-660.84	1255.8	264.79	-797.38	1476.3	446.85	-804.14	1467.3	96.532	-756.87	1808.1	258.9	-668.31	975.91	384.02	-698.57	981.39	136.87	-892.99	1005.3	313.74	-892.41	1008.8	233	-739.84	898.16	459.53	-830.39	900.57	87.49	-756.49	1059.8	439.95	-799.34	1066.3	105.75	-914.22	965.65	275.62	-664.41	649.25	436.3	-571.32	597.62	389.51	-636.58	564.74	416.26	-595.95	702.67	417.04	-590.9	510.01	399.68	-628.55	498.76	278.29	-619.17	273.35	398.38	-544.33	211.14	347.15	-607.74	205.23	381.78	-557.53	278.9	372.86	-579.49	96.035	355.29	-563.51	117.58	266.64	-638.78	68.877	296.46	-627.01	40.692	264.73	-632.34	34.775	328.76	-462.69	44.463	375.13	-429.17	60.739	260.27	-368.7	87.133	308.01	-875.04	672.13	97.007	-807.8	566.86	80.072	-876.05	582.38	101.29	-811.37	657.36	73.966	-860.22	484.6	93.454	-833.42	457.91	214.8	-1039.7	409.56	114.73	-1049.3	299.42	106	-1087.3	348.57	122.65	-1000.5	359.78	97.511	-1171.3	200.31	134.72	-1148.3	206.21	223.55	-1235	238.89	185.11	-1245.9	223.12	223.43	-1257.2	216.58	162.15	-1155.2	69.233	125.24	-1113.7	62.938	237.43	-1074.6	38.257	188.6	-849.85	1525.7	276.47	-922.01	1264.5	254.51
166	0.6875	-655	1256.5	265.25	-791.66	1476.8	447.41	-798.33	1468.1	97.081	-751.53	1808.8	259.71	-662.62	976.65	384.7	-692.64	981.84	137.58	-887.29	1006	313.89	-886.61	1009.3	233.14	-734.36	899	460.06	-823.98	900.49	87.948	-750.88	1060.5	440.37	-793.19	1066.8	106.17	-908.5	966.22	275.86	-659.44	649.75	436.86	-566.51	597.81	390.08	-631.9	565.15	416.77	-590.78	702.93	417.67	-586.47	510.11	400.14	-624.16	499.21	278.72	-616.55	273.61	398.82	-542.42	210.8	347.3	-605.77	205.4	382.1	-554.96	278.62	373.03	-578.74	96.002	355.42	-562.39	117.5	266.8	-638.43	69.169	296.62	-626.82	40.975	264.83	-632.13	34.972	328.85	-462.27	43.6	375.14	-428.72	59.604	260.17	-367.95	85.387	307.86	-866.4	671.23	96.87	-798.18	566.66	79.405	-866.48	581.46	100.93	-802.66	657.13	73.569	-849.43	484.18	92.744	-822.25	457.18	214.22	-1029.2	411.58	114.22	-1040.4	301.57	105.22	-1077.6	351.25	122.05	-990.71	361.28	96.836	-1163.8	204.43	133.71	-1140.4	209.77	222.51	-1226.2	245.02	184.08	-1237.6	229.79	222.58	-1249.2	223.28	161.27	-1151.5	72.359	124.67	-1109.7	65.464	236.58	-1071.7	38.398	187.68	-844.2	1526.2	277.1	-916.16	1265	254.9
167	0.69167	-649.22	1257.2	265.7	-785.94	1477.4	447.96	-792.54	1468.9	97.611	-746.21	1809.5	260.51	-656.98	977.41	385.36	-686.79	982.33	138.26	-881.65	1006.7	314.06	-880.88	1009.7	233.31	-728.93	899.84	460.57	-817.66	900.45	88.41	-745.32	1061.2	440.78	-787.15	1067.4	106.59	-902.84	966.81	276.12	-654.61	650.22	437.4	-561.85	597.94	390.64	-627.37	565.53	417.26	-585.72	703.13	418.31	-582.18	510.18	400.58	-619.9	499.65	279.12	-614.06	273.86	399.21	-540.61	210.46	347.41	-603.9	205.57	382.37	-552.51	278.35	373.16	-578.05	95.991	355.51	-561.35	117.44	266.92	-638.12	69.433	296.74	-626.64	41.231	264.91	-631.94	35.159	328.94	-461.9	42.851	375.15	-428.31	58.55	260.05	-367.29	83.775	307.68	-857.73	670.39	96.766	-788.52	566.54	78.796	-856.87	580.61	100.63	-793.95	656.98	73.205	-838.56	483.85	92.079	-811.07	456.59	213.72	-1018.6	413.62	113.71	-1031.2	303.75	104.47	-1067.8	353.93	121.46	-980.81	362.82	96.195	-1156.1	208.59	132.73	-1132.4	213.34	221.51	-1217.2	251.02	183.09	-1229	236.27	221.76	-1241	229.85	160.42	-1147.4	75.667	124.02	-1105.2	68.112	235.65	-1068.4	38.694	186.63	-838.56	1526.8	277.7	-910.35	1265.6	255.27
168	0.69583	-643.48	1257.9	266.11	-780.23	1478	448.47	-786.77	1469.8	98.121	-740.9	1810.1	261.32	-651.39	978.16	385.98	-681.01	982.85	138.92	-876.06	1007.4	314.25	-875.22	1010.2	233.51	-723.55	900.66	461.06	-811.43	900.45	88.873	-739.79	1061.9	441.18	-781.21	1067.9	107.03	-897.25	967.42	276.41	-649.91	650.65	437.93	-557.32	598.02	391.2	-623.01	565.86	417.72	-580.77	703.29	418.96	-578.06	510.24	401	-615.78	500.06	279.49	-611.69	274.1	399.54	-538.9	210.14	347.49	-602.14	205.73	382.59	-550.18	278.08	373.27	-577.41	96	355.57	-560.38	117.38	267.01	-637.85	69.671	296.84	-626.48	41.459	264.98	-631.76	35.338	329	-461.57	42.206	375.14	-427.96	57.568	259.92	-366.7	82.288	307.48	-849.06	669.63	96.698	-778.85	566.52	78.247	-847.23	579.85	100.39	-785.23	656.91	72.877	-827.64	483.62	91.459	-799.89	456.16	213.3	-1007.8	415.69	113.21	-1021.9	305.97	103.76	-1057.9	356.63	120.89	-970.77	364.4	95.592	-1148.2	212.77	131.8	-1124.1	216.92	220.56	-1208.1	256.87	182.18	-1220.3	242.53	220.98	-1232.5	236.24	159.62	-1142.8	79.138	123.29	-1100.3	70.861	234.62	-1064.6	39.167	185.46	-832.93	1527.4	278.28	-904.6	1266.3	255.64
169	0.7	-637.79	1258.6	266.51	-774.52	1478.6	448.97	-781.02	1470.6	98.612	-735.61	1810.9	262.12	-645.85	978.92	386.58	-675.31	983.43	139.54	-870.53	1008.1	314.48	-869.63	1010.7	233.73	-718.21	901.47	461.54	-805.28	900.5	89.336	-734.3	1062.6	441.56	-775.37	1068.5	107.47	-891.72	968.05	276.73	-645.35	651.06	438.43	-552.94	598.04	391.73	-618.81	566.16	418.14	-575.94	703.38	419.59	-574.09	510.27	401.4	-611.8	500.45	279.82	-609.46	274.33	399.8	-537.28	209.83	347.55	-600.49	205.9	382.75	-547.97	277.82	373.35	-576.83	96.026	355.59	-559.49	117.34	267.05	-637.62	69.886	296.92	-626.34	41.66	265.03	-631.6	35.51	329.06	-461.28	41.659	375.13	-427.64	56.654	259.77	-366.17	80.92	307.26	-840.37	668.94	96.666	-769.16	566.59	77.759	-837.56	579.18	100.21	-776.51	656.92	72.587	-816.67	483.51	90.885	-788.72	455.89	212.97	-996.97	417.78	112.73	-1012.4	308.22	103.1	-1047.8	359.34	120.33	-960.61	366.02	95.031	-1140.1	216.95	130.93	-1115.6	220.48	219.66	-1198.8	262.51	181.36	-1211.3	248.52	220.26	-1223.8	242.42	158.87	-1137.7	82.748	122.47	-1095	73.686	233.5	-1060.2	39.839	184.15	-827.3	1528.1	278.85	-898.89	1267	255.99
170	0.70417	-632.15	1259.4	266.87	-768.81	1479.2	449.44	-775.3	1471.5	99.084	-730.33	1811.6	262.91	-640.36	979.68	387.16	-669.66	984.04	140.14	-865.04	1008.8	314.72	-864.1	1011.2	233.98	-712.92	902.27	461.99	-799.22	900.6	89.797	-728.83	1063.3	441.93	-769.61	1069.1	107.93	-886.25	968.68	277.07	-640.92	651.43	438.9	-548.7	598.01	392.24	-614.76	566.43	418.54	-571.22	703.44	420.21	-570.27	510.27	401.78	-607.96	500.81	280.11	-607.36	274.56	400	-535.76	209.52	347.57	-598.95	206.06	382.85	-545.88	277.56	373.41	-576.3	96.067	355.58	-558.68	117.3	267.06	-637.42	70.08	296.97	-626.22	41.837	265.07	-631.45	35.677	329.1	-461.03	41.2	375.11	-427.36	55.804	259.61	-365.7	79.663	307.02	-831.67	668.34	96.671	-759.45	566.77	77.329	-827.86	578.6	100.09	-767.79	657.02	72.333	-805.68	483.52	90.359	-777.58	455.78	212.72	-986.06	419.88	112.27	-1002.8	310.48	102.48	-1037.6	362.03	119.8	-950.34	367.69	94.514	-1131.8	221.12	130.11	-1107	224.01	218.83	-1189.4	267.93	180.64	-1202.2	254.2	219.61	-1215	248.33	158.21	-1132.1	86.47	121.57	-1089.1	76.559	232.28	-1055.3	40.726	182.7	-821.68	1528.8	279.39	-893.24	1267.7	256.34
171	0.70833	-626.56	1260.1	267.21	-763.1	1479.8	449.9	-769.61	1472.4	99.539	-725.05	1812.4	263.7	-634.9	980.45	387.7	-664.08	984.7	140.71	-859.6	1009.5	314.99	-858.62	1011.7	234.26	-707.67	903.04	462.43	-793.24	900.76	90.253	-723.39	1064.1	442.3	-763.95	1069.7	108.4	-880.84	969.34	277.43	-636.61	651.79	439.35	-544.59	597.93	392.73	-610.86	566.67	418.89	-566.61	703.44	420.81	-566.61	510.26	402.13	-604.26	501.14	280.37	-605.39	274.77	400.13	-534.34	209.22	347.58	-597.52	206.21	382.89	-543.92	277.3	373.45	-575.82	96.121	355.54	-557.94	117.26	267.03	-637.25	70.254	296.99	-626.12	41.99	265.09	-631.31	35.839	329.13	-460.81	40.819	375.09	-427.11	55.012	259.45	-365.29	78.509	306.77	-822.98	667.83	96.711	-749.73	567.06	76.958	-818.15	578.13	100.04	-759.07	657.21	72.116	-794.68	483.66	89.882	-766.48	455.83	212.54	-975.09	421.99	111.83	-992.98	312.76	101.9	-1027.3	364.71	119.29	-939.98	369.39	94.043	-1123.2	225.24	129.36	-1098.2	227.48	218.07	-1180	273.08	180.04	-1193	259.53	219.05	-1206	253.96	157.63	-1125.9	90.272	120.57	-1082.7	79.451	230.98	-1049.8	41.839	181.12	-816.06	1529.5	279.92	-887.63	1268.5	256.69
172	0.7125	-621.01	1260.8	267.53	-757.39	1480.5	450.32	-763.95	1473.4	99.975	-719.77	1813.1	264.48	-629.49	981.21	388.22	-658.56	985.41	141.24	-854.21	1010.3	315.29	-853.2	1012.3	234.56	-702.48	903.79	462.86	-787.34	900.99	90.7	-717.98	1064.8	442.65	-758.35	1070.4	108.88	-875.47	970	277.81	-632.44	652.12	439.76	-540.62	597.82	393.2	-607.11	566.88	419.22	-562.11	703.41	421.37	-563.1	510.23	402.46	-600.69	501.45	280.59	-603.56	274.97	400.21	-533	208.93	347.57	-596.19	206.37	382.88	-542.06	277.04	373.47	-575.37	96.187	355.48	-557.28	117.23	266.98	-637.11	70.412	296.99	-626.03	42.123	265.1	-631.19	35.998	329.15	-460.62	40.508	375.06	-426.88	54.275	259.27	-364.92	77.451	306.52	-814.28	667.42	96.783	-740.01	567.45	76.643	-808.41	577.77	100.04	-750.35	657.5	71.935	-783.67	483.93	89.455	-755.42	456.06	212.43	-964.08	424.11	111.42	-983.07	315.04	101.39	-1016.9	367.36	118.82	-929.54	371.13	93.622	-1114.5	229.31	128.69	-1089.2	230.87	217.37	-1170.4	277.95	179.56	-1183.6	264.5	218.58	-1196.8	259.27	157.14	-1119.3	94.125	119.47	-1075.8	82.336	229.57	-1043.7	43.179	179.41	-810.46	1530.3	280.43	-882.07	1269.3	257.05
